<svg xmlns="http://www.w3.org/2000/svg" fill="none" viewBox="0 0 24 24"><path fill="currentColor" d="M8.87 4.5h-3A1.5 1.5 0 0 0 4.37 6v3a1.5 1.5 0 0 0 1.5 1.5h3a1.5 1.5 0 0 0 1.5-1.5V6a1.5 1.5 0 0 0-1.5-1.5Zm0 9h-3a1.5 1.5 0 0 0-1.5 1.5v3a1.5 1.5 0 0 0 1.5 1.5h3a1.5 1.5 0 0 0 1.5-1.5v-3a1.5 1.5 0 0 0-1.5-1.5Zm9 0h-3a1.5 1.5 0 0 0-1.5 1.5v3a1.5 1.5 0 0 0 1.5 1.5h3a1.5 1.5 0 0 0 1.5-1.5v-3a1.5 1.5 0 0 0-1.5-1.5Zm1.01-6.25h-1.75V5.5a.75.75 0 1 0-1.5 0v1.75h-1.75a.75.75 0 1 0 0 1.5h1.75v1.75a.75.75 0 1 0 1.5 0V8.75h1.75a.75.75 0 1 0 0-1.5Z"/></svg>