<svg width="24" height="24" viewBox="0 0 24 24" fill="none" xmlns="http://www.w3.org/2000/svg">
<g id="Arrow-Right 3">
<path id="Vector" d="M15.75 10.7L9.75 7.23C9.5219 7.09831 9.26315 7.029 8.99976 7.02904C8.73637 7.02908 8.47764 7.09847 8.24958 7.23024C8.02153 7.36201 7.83218 7.5515 7.7006 7.77966C7.56902 8.00782 7.49983 8.26661 7.5 8.53V15.46C7.49983 15.7234 7.56902 15.9822 7.7006 16.2103C7.83218 16.4385 8.02153 16.628 8.24958 16.7598C8.47764 16.8915 8.73637 16.9609 8.99976 16.961C9.26315 16.961 9.5219 16.8917 9.75 16.76L15.75 13.3C15.9785 13.1685 16.1683 12.9791 16.3002 12.7508C16.4322 12.5226 16.5017 12.2636 16.5017 12C16.5017 11.7364 16.4322 11.4774 16.3002 11.2492C16.1683 11.0209 15.9785 10.8315 15.75 10.7Z" stroke="#00153F" stroke-width="1.5" stroke-linecap="round" stroke-linejoin="round"/>
</g>
</svg>
