<svg width="24" height="24" viewBox="0 0 24 24" fill="none" xmlns="http://www.w3.org/2000/svg">
<g id="Attachment">
<path id="Vector" d="M9.4 16.29L15.4 10.29C15.6791 10.0058 15.8355 9.62335 15.8355 9.225C15.8355 8.82665 15.6791 8.44422 15.4 8.16C15.1175 7.88152 14.7367 7.7254 14.34 7.7254C13.9433 7.7254 13.5625 7.88152 13.28 8.16L7.28 14.16C7.00032 14.4387 6.77841 14.7699 6.62699 15.1345C6.47558 15.4992 6.39764 15.8902 6.39764 16.285C6.39764 16.6798 6.47558 17.0708 6.62699 17.4355C6.77841 17.8001 7.00032 18.1313 7.28 18.41C7.8425 18.9718 8.605 19.2874 9.4 19.2874C10.195 19.2874 10.9575 18.9718 11.52 18.41L17.52 12.41C17.9388 11.992 18.271 11.4956 18.4977 10.949C18.7244 10.4025 18.841 9.81666 18.841 9.225C18.841 8.63333 18.7244 8.04747 18.4977 7.50095C18.271 6.95443 17.9388 6.45797 17.52 6.04C16.6733 5.19912 15.5283 4.7272 14.335 4.7272C13.1417 4.7272 11.9967 5.19912 11.15 6.04L5.15 12.04" stroke="#00153F" stroke-width="1.5" stroke-linecap="round" stroke-linejoin="round"/>
</g>
</svg>
