<svg width="24" height="24" viewBox="0 0 24 24" fill="none" xmlns="http://www.w3.org/2000/svg">
<g id="Bag-Minus">
<path id="Vector" d="M6.24995 10.33L7.57995 18.33C7.65877 18.8014 7.90381 19.229 8.27069 19.5353C8.63757 19.8417 9.10203 20.0065 9.57995 20H14.6999C15.1779 20.0065 15.6423 19.8417 16.0092 19.5353C16.3761 19.229 16.6211 18.8014 16.6999 18.33L18.0299 10.33C18.0788 10.0386 18.0625 9.73992 17.9822 9.45555C17.9019 9.17118 17.7596 8.90814 17.5655 8.68535C17.3713 8.46255 17.1303 8.28554 16.8596 8.16703C16.5889 8.04852 16.2953 7.99147 15.9999 7.99997H8.21995C7.9296 8.00035 7.64281 8.06394 7.37952 8.18632C7.11622 8.30871 6.88273 8.48695 6.69526 8.70868C6.5078 8.9304 6.37086 9.19028 6.29396 9.47026C6.21706 9.75024 6.20204 10.0436 6.24995 10.33Z" stroke="#00153F" stroke-width="1.5" stroke-linecap="round" stroke-linejoin="round"/>
<path id="Vector_2" d="M9.70996 9V6.4C9.71259 5.76429 9.96629 5.15537 10.4158 4.70585C10.8653 4.25633 11.4743 4.00263 12.11 4C12.7457 4.00263 13.3546 4.25633 13.8041 4.70585C14.2536 5.15537 14.5073 5.76429 14.51 6.4V9" stroke="#00153F" stroke-width="1.5" stroke-linecap="round" stroke-linejoin="round"/>
<path id="Vector_3" d="M14.11 14H10.11" stroke="#00153F" stroke-width="1.5" stroke-linecap="round" stroke-linejoin="round"/>
</g>
</svg>
