<svg width="24" height="24" viewBox="0 0 24 24" fill="none" xmlns="http://www.w3.org/2000/svg">
<g id="Basket-Plus">
<path id="Vector" d="M4.74995 9.82997L6.07995 17.83C6.15877 18.3014 6.40381 18.729 6.77069 19.0353C7.13757 19.3417 7.60203 19.5065 8.07995 19.5H15.6999C16.1779 19.5065 16.6423 19.3417 17.0092 19.0353C17.3761 18.729 17.6211 18.3014 17.6999 17.83L19.0299 9.82997C19.0788 9.53855 19.0625 9.23992 18.9822 8.95555C18.9019 8.67118 18.7596 8.40814 18.5655 8.18535C18.3713 7.96255 18.1303 7.78554 17.8596 7.66703C17.5889 7.54852 17.2953 7.49147 16.9999 7.49997H6.71995C6.4296 7.50035 6.14281 7.56394 5.87952 7.68632C5.61622 7.80871 5.38273 7.98695 5.19526 8.20868C5.0078 8.4304 4.87086 8.69028 4.79396 8.97026C4.71706 9.25024 4.70204 9.5436 4.74995 9.82997Z" stroke="#00153F" stroke-width="1.5" stroke-linecap="round" stroke-linejoin="round"/>
<path id="Vector_2" d="M12 13V17" stroke="#00153F" stroke-width="1.5" stroke-linecap="round" stroke-linejoin="round"/>
<path id="Vector_3" d="M14 15H10" stroke="#00153F" stroke-width="1.5" stroke-linecap="round" stroke-linejoin="round"/>
<path id="Vector_4" d="M4.85999 10.5H18.79" stroke="#00153F" stroke-width="1.5" stroke-linecap="round" stroke-linejoin="round"/>
<path id="Vector_5" d="M7.35999 7.5L9.35998 4.5" stroke="#00153F" stroke-width="1.5" stroke-linecap="round" stroke-linejoin="round"/>
<path id="Vector_6" d="M16.36 7.5L14.36 4.5" stroke="#00153F" stroke-width="1.5" stroke-linecap="round" stroke-linejoin="round"/>
</g>
</svg>
