<svg xmlns="http://www.w3.org/2000/svg" fill="none" viewBox="0 0 24 24"><path stroke="currentColor" stroke-linecap="round" stroke-linejoin="round" stroke-width="1.5" d="M15.37 21.14H6.3a4 4 0 0 1-4-4V7.89a4 4 0 0 1 4-4h10a4 4 0 0 1 4 4v5.87M7.3 2.39v3m9-3v3m-14 3.5h18"/><path stroke="currentColor" stroke-linecap="round" stroke-linejoin="round" stroke-width="1.5" d="M17.35 21.61a4.35 4.35 0 1 0 0-8.7 4.35 4.35 0 0 0 0 8.7Z"/><path stroke="currentColor" stroke-linecap="round" stroke-linejoin="round" stroke-width="1.5" d="m15.93 17.35.89.89 1.96-1.96"/><path stroke="currentColor" stroke-linecap="round" stroke-linejoin="round" stroke-width="2" d="M7.3 13.15v.001m4-.001v.001m-4 3.999v.001"/></svg>