<svg width="24" height="24" viewBox="0 0 24 24" fill="none" xmlns="http://www.w3.org/2000/svg">
<g id="Camera-Slash">
<path id="Vector" d="M5 19C4.46957 19 3.96086 18.7893 3.58579 18.4142C3.21071 18.0391 3 17.5304 3 17V9C3 8.46957 3.21071 7.96086 3.58579 7.58579C3.96086 7.21071 4.46957 7 5 7H8.5C8.63261 7 8.75979 6.94732 8.85355 6.85355C8.94732 6.75979 9 6.63261 9 6.5V5C9 4.73478 9.10536 4.48043 9.29289 4.29289C9.48043 4.10536 9.73478 4 10 4H14C14.2652 4 14.5196 4.10536 14.7071 4.29289C14.8946 4.48043 15 4.73478 15 5V6.5C15 6.63261 15.0527 6.75979 15.1464 6.85355C15.2402 6.94732 15.3674 7 15.5 7H17" stroke="#00153F" stroke-width="1.5" stroke-linecap="round" stroke-linejoin="round"/>
<path id="Vector_2" d="M20 7.27002C20.303 7.44527 20.5547 7.69699 20.73 8.00002C20.9063 8.30386 20.9994 8.64876 21 9.00002V17C21 17.5305 20.7893 18.0392 20.4142 18.4142C20.0391 18.7893 19.5304 19 19 19H9" stroke="#00153F" stroke-width="1.5" stroke-linecap="round" stroke-linejoin="round"/>
<path id="Vector_3" d="M9.16999 14C8.9806 13.4658 8.94642 12.8888 9.07141 12.336C9.1964 11.7831 9.47545 11.277 9.87624 10.8762C10.277 10.4755 10.7831 10.1964 11.336 10.0714C11.8888 9.94642 12.4658 9.9806 13 10.17" stroke="#00153F" stroke-width="1.5" stroke-linecap="round" stroke-linejoin="round"/>
<path id="Vector_4" d="M22 2L2 22" stroke="#00153F" stroke-width="1.5" stroke-linecap="round" stroke-linejoin="round"/>
</g>
</svg>
