<svg xmlns="http://www.w3.org/2000/svg" fill="none" viewBox="0 0 24 24"><path fill="currentColor" d="M8.79 18.81a1 1 0 1 0 0-2 1 1 0 0 0 0 2Zm8 0a1 1 0 1 0 0-2 1 1 0 0 0 0 2Z"/><path stroke="currentColor" stroke-linecap="round" stroke-linejoin="round" stroke-width="1.5" d="M3.09 5.19h1.73a1.51 1.51 0 0 1 1.49 1.35l.69 7.3a1.5 1.5 0 0 0 1.49 1.35h9.3a1.49 1.49 0 0 0 1.49-1.33l.67-6a1.502 1.502 0 0 0-1.45-1.67H6.28"/><path stroke="currentColor" stroke-linecap="round" stroke-linejoin="round" stroke-width="1.5" d="m11.1 10.96 1.78 1.78 3.91-3.91"/></svg>