<svg width="24" height="24" viewBox="0 0 24 24" fill="none" xmlns="http://www.w3.org/2000/svg">
<g id="Filter-Horizental">
<path id="Vector" d="M3.5 6H14.5" stroke="#00153F" stroke-width="1.5" stroke-linecap="round" stroke-linejoin="round"/>
<path id="Vector_2" d="M19 7.5C19.8284 7.5 20.5 6.82843 20.5 6C20.5 5.17157 19.8284 4.5 19 4.5C18.1716 4.5 17.5 5.17157 17.5 6C17.5 6.82843 18.1716 7.5 19 7.5Z" stroke="#00153F" stroke-width="1.5" stroke-linecap="round" stroke-linejoin="round"/>
<path id="Vector_3" d="M20.5 12H9.5" stroke="#00153F" stroke-width="1.5" stroke-linecap="round" stroke-linejoin="round"/>
<path id="Vector_4" d="M5 13.5C5.82843 13.5 6.5 12.8284 6.5 12C6.5 11.1716 5.82843 10.5 5 10.5C4.17157 10.5 3.5 11.1716 3.5 12C3.5 12.8284 4.17157 13.5 5 13.5Z" stroke="#00153F" stroke-width="1.5" stroke-linecap="round" stroke-linejoin="round"/>
<path id="Vector_5" d="M3.5 18H14.5" stroke="#00153F" stroke-width="1.5" stroke-linecap="round" stroke-linejoin="round"/>
<path id="Vector_6" d="M19 19.5C19.8284 19.5 20.5 18.8284 20.5 18C20.5 17.1716 19.8284 16.5 19 16.5C18.1716 16.5 17.5 17.1716 17.5 18C17.5 18.8284 18.1716 19.5 19 19.5Z" stroke="#00153F" stroke-width="1.5" stroke-linecap="round" stroke-linejoin="round"/>
</g>
</svg>
