<svg width="24" height="24" viewBox="0 0 24 24" fill="none" xmlns="http://www.w3.org/2000/svg">
<g id="Fingerprint">
<path id="Vector" d="M9 5.32998C9.90774 4.58604 11.008 4.11503 12.1729 3.9717C13.3377 3.82838 14.5193 4.01862 15.5803 4.52032C16.6413 5.02202 17.5382 5.81457 18.1665 6.80583C18.7949 7.79708 19.129 8.94633 19.13 10.12C19.1483 13.8602 17.685 17.4556 15.06 20.12" stroke="#00153F" stroke-width="1.5" stroke-linecap="round" stroke-linejoin="round"/>
<path id="Vector_2" d="M4.88 12C5.12379 12 5.36518 11.9518 5.59029 11.8582C5.81539 11.7646 6.01978 11.6275 6.1917 11.4546C6.36362 11.2818 6.49968 11.0766 6.59206 10.851C6.68444 10.6254 6.73132 10.3838 6.73 10.14C6.73009 9.40989 6.85872 8.6855 7.11 8" stroke="#00153F" stroke-width="1.5" stroke-linecap="round" stroke-linejoin="round"/>
<path id="Vector_3" d="M13 17.75C12.1301 18.6594 11.1166 19.4195 10 20" stroke="#00153F" stroke-width="1.5" stroke-linecap="round" stroke-linejoin="round"/>
<path id="Vector_4" d="M4.88 15.08C6.20609 15.08 7.47786 14.5532 8.41554 13.6155C9.35322 12.6778 9.88 11.4061 9.88 10.08C9.88 9.25781 10.2066 8.46931 10.788 7.88795C11.3693 7.30659 12.1578 6.97998 12.98 6.97998C13.8022 6.97998 14.5907 7.30659 15.172 7.88795C15.7534 8.46931 16.08 9.25781 16.08 10.08C16.0714 11.789 15.6675 13.4729 14.9 15" stroke="#00153F" stroke-width="1.5" stroke-linecap="round" stroke-linejoin="round"/>
<path id="Vector_5" d="M5.93005 18.1C7.87408 17.8551 9.66065 16.9053 10.9509 15.4307C12.2412 13.9561 12.9454 12.0593 12.9301 10.1" stroke="#00153F" stroke-width="1.5" stroke-linecap="round" stroke-linejoin="round"/>
</g>
</svg>
