<svg width="24" height="24" viewBox="0 0 24 24" fill="none" xmlns="http://www.w3.org/2000/svg">
<g id="Login">
<path id="Vector" d="M14.5 16V18C14.5 18.7956 14.1839 19.5587 13.6213 20.1213C13.0587 20.6839 12.2956 21 11.5 21H7.5C6.70435 21 5.94129 20.6839 5.37868 20.1213C4.81607 19.5587 4.5 18.7956 4.5 18V6C4.5 5.20435 4.81607 4.44129 5.37868 3.87868C5.94129 3.31607 6.70435 3 7.5 3H11.5C12.2956 3 13.0587 3.31607 13.6213 3.87868C14.1839 4.44129 14.5 5.20435 14.5 6V8" stroke="#00153F" stroke-width="1.5" stroke-linecap="round" stroke-linejoin="round"/>
<path id="Vector_2" d="M7.5 11.73H19.5" stroke="#00153F" stroke-width="1.5" stroke-linecap="round" stroke-linejoin="round"/>
<path id="Vector_3" d="M11.1 15.33L7.5 11.73L11.1 8.13" stroke="#00153F" stroke-width="1.5" stroke-linecap="round" stroke-linejoin="round"/>
</g>
</svg>
