<svg width="24" height="24" viewBox="0 0 24 24" fill="none" xmlns="http://www.w3.org/2000/svg">
<g id="Logout">
<path id="Vector" d="M13.5 16V18C13.5 18.7956 13.1839 19.5587 12.6213 20.1213C12.0587 20.6839 11.2956 21 10.5 21H6.5C5.70435 21 4.94129 20.6839 4.37868 20.1213C3.81607 19.5587 3.5 18.7956 3.5 18V6C3.5 5.20435 3.81607 4.44129 4.37868 3.87868C4.94129 3.31607 5.70435 3 6.5 3H10.5C11.2956 3 12.0587 3.31607 12.6213 3.87868C13.1839 4.44129 13.5 5.20435 13.5 6V8" stroke="#00153F" stroke-width="1.5" stroke-linecap="round" stroke-linejoin="round"/>
<path id="Vector_2" d="M20.5 11.73H8.5" stroke="#00153F" stroke-width="1.5" stroke-linecap="round" stroke-linejoin="round"/>
<path id="Vector_3" d="M16.9 8.13L20.5 11.73L16.9 15.33" stroke="#00153F" stroke-width="1.5" stroke-linecap="round" stroke-linejoin="round"/>
</g>
</svg>
