<svg width="24" height="24" viewBox="0 0 24 24" fill="none" xmlns="http://www.w3.org/2000/svg">
<g id="Logout-Vertical-Rounded">
<path id="Vector" d="M16 10.5C17.3261 10.5 18.5979 11.0268 19.5355 11.9645C20.4732 12.9021 21 14.1739 21 15.5C21 16.1566 20.8707 16.8068 20.6194 17.4134C20.3681 18.02 19.9998 18.5712 19.5355 19.0355C19.0712 19.4998 18.52 19.8681 17.9134 20.1194C17.3068 20.3707 16.6566 20.5 16 20.5H8C6.67392 20.5 5.40215 19.9732 4.46447 19.0355C3.52678 18.0979 3 16.8261 3 15.5C3 14.1739 3.52678 12.9021 4.46447 11.9645C5.40215 11.0268 6.67392 10.5 8 10.5" stroke="#00153F" stroke-width="1.5" stroke-linecap="round" stroke-linejoin="round"/>
<path id="Vector_2" d="M11.73 3.5V15.5" stroke="#00153F" stroke-width="1.5" stroke-linecap="round" stroke-linejoin="round"/>
<path id="Vector_3" d="M8.13 7.1L11.73 3.5L15.33 7.1" stroke="#00153F" stroke-width="1.5" stroke-linecap="round" stroke-linejoin="round"/>
</g>
</svg>
