<svg xmlns="http://www.w3.org/2000/svg" fill="none" viewBox="0 0 24 24"><g stroke="currentColor"><path stroke-miterlimit="10" stroke-width="1.5" d="M5.63 18.72a1 1 0 0 0-.8-1 3 3 0 0 1-2.2-2.89V9a3 3 0 0 1 3-3h9.6a3 3 0 0 1 3 3v5.86a3 3 0 0 1-3 3h-5.21a1 1 0 0 0-.7.29L6.48 21a.49.49 0 0 1-.85-.35v-1.93Z"/><path stroke-miterlimit="10" stroke-width="1.5" d="M5.77 6v-.14a3 3 0 0 1 3-3h9.6a3 3 0 0 1 3 3v5.85a3 3 0 0 1-3 3h-.14"/><path stroke-linecap="round" stroke-linejoin="round" stroke-width="2" d="M7.45 11.85v.001m3-.001v.001m3-.001v.001"/></g></svg>