<svg width="24" height="24" viewBox="0 0 24 24" fill="none" xmlns="http://www.w3.org/2000/svg">
<g id="Message-New-2">
<path id="Vector" d="M19 8.76999C19.4274 9.85681 19.5956 11.0284 19.491 12.1915C19.3864 13.3547 19.012 14.4775 18.3974 15.4706C17.7829 16.4637 16.9453 17.2998 15.951 17.9125C14.9568 18.5252 13.8333 18.8975 12.67 19C11.7062 19.0846 10.7352 18.9828 9.80996 18.7C9.60319 18.6251 9.37672 18.6251 9.16996 18.7L6.66996 20C6.59396 20.0377 6.50869 20.0526 6.42441 20.043C6.34013 20.0333 6.26043 19.9995 6.19492 19.9456C6.12941 19.8917 6.08087 19.8201 6.05515 19.7392C6.02943 19.6584 6.02763 19.5718 6.04996 19.49L6.57996 17.35C6.61148 17.208 6.60888 17.0605 6.57238 16.9197C6.53587 16.7789 6.4665 16.6488 6.36996 16.54C5.46606 15.5346 4.85035 14.3038 4.5878 12.9775C4.32524 11.6513 4.42559 10.2787 4.87823 9.00475C5.33088 7.73078 6.11905 6.60262 7.15956 5.73935C8.20007 4.87608 9.45432 4.3097 10.79 4.09999C11.5225 3.99027 12.2674 3.99027 13 4.09999" stroke="#00153F" stroke-width="1.5" stroke-linecap="round" stroke-linejoin="round"/>
<path id="Vector_2" d="M9 11.5V11.501" stroke="#00153F" stroke-width="2" stroke-linecap="round" stroke-linejoin="round"/>
<path id="Vector_3" d="M12 11.5V11.501" stroke="#00153F" stroke-width="2" stroke-linecap="round" stroke-linejoin="round"/>
<path id="Vector_4" d="M15 11.5V11.501" stroke="#00153F" stroke-width="2" stroke-linecap="round" stroke-linejoin="round"/>
<path id="Vector_5" d="M16.5 7C17.3284 7 18 6.32843 18 5.5C18 4.67157 17.3284 4 16.5 4C15.6716 4 15 4.67157 15 5.5C15 6.32843 15.6716 7 16.5 7Z" stroke="#00153F" stroke-width="1.5" stroke-linecap="round" stroke-linejoin="round"/>
</g>
</svg>
