<svg width="24" height="24" viewBox="0 0 24 24" fill="none" xmlns="http://www.w3.org/2000/svg">
<g id="Microphone-Slash">
<path id="Vector" d="M10 13.37C9.5379 13.0472 9.16033 12.6179 8.89924 12.1183C8.63815 11.6188 8.50121 11.0637 8.5 10.5V5.5C8.5 4.57174 8.86875 3.6815 9.52513 3.02513C10.1815 2.36875 11.0717 2 12 2C12.9283 2 13.8185 2.36875 14.4749 3.02513C15.1313 3.6815 15.5 4.57174 15.5 5.5V8.5" stroke="#00153F" stroke-width="1.5" stroke-linecap="round" stroke-linejoin="round"/>
<path id="Vector_2" d="M8 15.62C7.22127 15.013 6.59132 14.2363 6.15809 13.349C5.72486 12.4618 5.49979 11.4874 5.5 10.5" stroke="#00153F" stroke-width="1.5" stroke-linecap="round" stroke-linejoin="round"/>
<path id="Vector_3" d="M18.5 10.5C18.5 12.2239 17.8152 13.8772 16.5962 15.0962C15.3772 16.3152 13.7239 17 12 17C11.4952 17.0001 10.992 16.9431 10.5 16.83" stroke="#00153F" stroke-width="1.5" stroke-linecap="round" stroke-linejoin="round"/>
<path id="Vector_4" d="M12 17V22" stroke="#00153F" stroke-width="1.5" stroke-linecap="round" stroke-linejoin="round"/>
<path id="Vector_5" d="M11 5H13" stroke="#00153F" stroke-width="1.5" stroke-linecap="round" stroke-linejoin="round"/>
<path id="Vector_6" d="M11 8H13" stroke="#00153F" stroke-width="1.5" stroke-linecap="round" stroke-linejoin="round"/>
<path id="Vector_7" d="M22 2L2 22" stroke="#00153F" stroke-width="1.5" stroke-linecap="round" stroke-linejoin="round"/>
</g>
</svg>
