<svg width="24" height="24" viewBox="0 0 24 24" fill="none" xmlns="http://www.w3.org/2000/svg">
<g id="Pause-Sqaure">
<path id="Vector" d="M9.97 8.23999H8.24C7.75951 8.23999 7.37 8.6295 7.37 9.10999V14.89C7.37 15.3705 7.75951 15.76 8.24 15.76H9.97C10.4505 15.76 10.84 15.3705 10.84 14.89V9.10999C10.84 8.6295 10.4505 8.23999 9.97 8.23999Z" stroke="#00153F" stroke-width="1.5" stroke-linecap="round" stroke-linejoin="round"/>
<path id="Vector_2" d="M15.76 8.23999H14.03C13.5495 8.23999 13.16 8.6295 13.16 9.10999V14.89C13.16 15.3705 13.5495 15.76 14.03 15.76H15.76C16.2405 15.76 16.63 15.3705 16.63 14.89V9.10999C16.63 8.6295 16.2405 8.23999 15.76 8.23999Z" stroke="#00153F" stroke-width="1.5" stroke-linecap="round" stroke-linejoin="round"/>
<path id="Vector_3" d="M17 3H7C4.79086 3 3 4.79086 3 7V17C3 19.2091 4.79086 21 7 21H17C19.2091 21 21 19.2091 21 17V7C21 4.79086 19.2091 3 17 3Z" stroke="#00153F" stroke-width="1.5" stroke-linecap="round" stroke-linejoin="round"/>
</g>
</svg>
