<svg width="24" height="24" viewBox="0 0 24 24" fill="none" xmlns="http://www.w3.org/2000/svg">
<g id="Pencil 1">
<path id="Vector" d="M4.83 14.93L14.93 4.83001C15.023 4.73628 15.1336 4.66189 15.2554 4.61112C15.3773 4.56035 15.508 4.53421 15.64 4.53421C15.772 4.53421 15.9027 4.56035 16.0246 4.61112C16.1464 4.66189 16.257 4.73628 16.35 4.83001L19.17 7.65001C19.2637 7.74297 19.3381 7.85357 19.3889 7.97543C19.4397 8.09729 19.4658 8.228 19.4658 8.36001C19.4658 8.49202 19.4397 8.62273 19.3889 8.74459C19.3381 8.86644 19.2637 8.97705 19.17 9.07001L9.07 19.17C8.97738 19.2645 8.86694 19.3397 8.74506 19.3912C8.62319 19.4427 8.49231 19.4695 8.36 19.47H5.53C5.26478 19.47 5.01043 19.3647 4.82289 19.1771C4.63536 18.9896 4.53 18.7352 4.53 18.47V15.64C4.53055 15.5077 4.55735 15.3768 4.60884 15.2549C4.66034 15.1331 4.73551 15.0226 4.83 14.93Z" stroke="#00153F" stroke-width="1.5" stroke-linecap="round" stroke-linejoin="round"/>
<path id="Vector_2" d="M12.5 7.26001L16.74 11.5" stroke="#00153F" stroke-width="1.5" stroke-linecap="round" stroke-linejoin="round"/>
</g>
</svg>
