<svg width="24" height="24" viewBox="0 0 24 24" fill="none" xmlns="http://www.w3.org/2000/svg">
<g id="User-2-Minus">
<path id="Vector" d="M11.5 9.75C13.1569 9.75 14.5 8.40685 14.5 6.75C14.5 5.09315 13.1569 3.75 11.5 3.75C9.84315 3.75 8.5 5.09315 8.5 6.75C8.5 8.40685 9.84315 9.75 11.5 9.75Z" stroke="#00153F" stroke-width="1.5" stroke-linecap="round" stroke-linejoin="round"/>
<path id="Vector_2" d="M14.5 20.25H5.94C5.42548 20.25 4.93203 20.0456 4.56821 19.6818C4.20439 19.318 4 18.8245 4 18.31V14.69C4 14.1755 4.20439 13.682 4.56821 13.3182C4.93203 12.9544 5.42548 12.75 5.94 12.75H14.5" stroke="#00153F" stroke-width="1.5" stroke-linecap="round" stroke-linejoin="round"/>
<path id="Vector_3" d="M15.5 16.5H20" stroke="#00153F" stroke-width="1.5" stroke-linecap="round" stroke-linejoin="round"/>
</g>
</svg>
