<svg xmlns="http://www.w3.org/2000/svg" fill="none" viewBox="0 0 24 24"><path stroke="currentColor" stroke-linecap="round" stroke-miterlimit="10" stroke-width="1.5" d="M19.8 10v3.28a3 3 0 0 1-3 3h-5.21a1 1 0 0 0-.7.29l-2.84 2.86a.5.5 0 0 1-.85-.36v-1.92a1 1 0 0 0-.8-1 3 3 0 0 1-2.2-2.89V7.43a3 3 0 0 1 3-3H14"/><path stroke="currentColor" stroke-linecap="round" stroke-linejoin="round" stroke-width="1.5" d="M18.5 7a1.5 1.5 0 1 0 0-3 1.5 1.5 0 0 0 0 3Z"/><path stroke="currentColor" stroke-linecap="round" stroke-linejoin="round" stroke-width="2" d="M9 10.28v.01m3-.01v.01m3-.01v.01"/></svg>