<svg width="24" height="24" viewBox="0 0 24 24" fill="none" xmlns="http://www.w3.org/2000/svg">
<g id="Arrow-Down-3">
<path id="Vector" d="M13.3 15.75L16.76 9.75C16.8917 9.5219 16.961 9.26315 16.961 8.99976C16.9609 8.73637 16.8915 8.47764 16.7598 8.24958C16.628 8.02153 16.4385 7.83218 16.2103 7.7006C15.9822 7.56902 15.7234 7.49983 15.46 7.5H8.53999C8.27661 7.49983 8.01782 7.56902 7.78966 7.7006C7.56149 7.83218 7.372 8.02153 7.24023 8.24958C7.10847 8.47764 7.03907 8.73637 7.03903 8.99976C7.03899 9.26315 7.1083 9.5219 7.23999 9.75L10.7 15.75C10.8315 15.9785 11.0209 16.1683 11.2492 16.3002C11.4774 16.4322 11.7364 16.5017 12 16.5017C12.2636 16.5017 12.5226 16.4322 12.7508 16.3002C12.9791 16.1683 13.1685 15.9785 13.3 15.75Z" stroke="#00153F" stroke-width="1.5" stroke-linecap="round" stroke-linejoin="round"/>
</g>
</svg>
