<svg width="24" height="24" viewBox="0 0 24 24" fill="none" xmlns="http://www.w3.org/2000/svg">
<g id="Arrow-Up-3">
<path id="Vector" d="M10.7 8.25L7.23999 14.25C7.1083 14.4781 7.03899 14.7369 7.03903 15.0002C7.03907 15.2636 7.10847 15.5224 7.24023 15.7504C7.372 15.9785 7.56149 16.1678 7.78966 16.2994C8.01782 16.431 8.27661 16.5002 8.53999 16.5H15.46C15.7234 16.5002 15.9822 16.431 16.2103 16.2994C16.4385 16.1678 16.628 15.9785 16.7598 15.7504C16.8915 15.5224 16.9609 15.2636 16.961 15.0002C16.961 14.7369 16.8917 14.4781 16.76 14.25L13.3 8.25C13.1685 8.02152 12.9791 7.83174 12.7508 7.69977C12.5226 7.56781 12.2636 7.49833 12 7.49833C11.7364 7.49833 11.4774 7.56781 11.2492 7.69977C11.0209 7.83174 10.8315 8.02152 10.7 8.25Z" stroke="#00153F" stroke-width="1.5" stroke-linecap="round" stroke-linejoin="round"/>
</g>
</svg>
