<svg width="24" height="24" viewBox="0 0 24 24" fill="none" xmlns="http://www.w3.org/2000/svg">
<g id="Call-Cross">
<path id="Vector" d="M6.47 4.05002L5 5.54002C4.60332 5.93246 4.2884 6.39967 4.07348 6.91461C3.85856 7.42956 3.74789 7.98202 3.74789 8.54002C3.74789 9.09802 3.85856 9.65048 4.07348 10.1654C4.2884 10.6804 4.60332 11.1476 5 11.54L12.47 19C12.8624 19.3967 13.3296 19.7116 13.8446 19.9265C14.3595 20.1415 14.912 20.2521 15.47 20.2521C16.028 20.2521 16.5805 20.1415 17.0954 19.9265C17.6104 19.7116 18.0776 19.3967 18.47 19L20 17.53C20.1044 17.4318 20.1877 17.3133 20.2445 17.1817C20.3014 17.0502 20.3308 16.9084 20.3308 16.765C20.3308 16.6217 20.3014 16.4799 20.2445 16.3483C20.1877 16.2167 20.1044 16.0982 20 16L17.76 13.75C17.5599 13.5534 17.2906 13.4432 17.01 13.4432C16.7294 13.4432 16.4601 13.5534 16.26 13.75L15.51 14.5C15.3099 14.6967 15.0406 14.8069 14.76 14.8069C14.4794 14.8069 14.2101 14.6967 14.01 14.5L9.47 10C9.27335 9.79992 9.16315 9.53058 9.16315 9.25002C9.16315 8.96946 9.27335 8.70012 9.47 8.50002L10.22 7.75002C10.4167 7.54992 10.5268 7.28058 10.5268 7.00002C10.5268 6.71946 10.4167 6.45012 10.22 6.25002L8 4.05002C7.90182 3.94559 7.78329 3.86236 7.65173 3.80547C7.52016 3.74859 7.37834 3.71924 7.235 3.71924C7.09166 3.71924 6.94984 3.74859 6.81827 3.80547C6.68671 3.86236 6.56818 3.94559 6.47 4.05002Z" stroke="#00153F" stroke-width="1.5" stroke-linecap="round" stroke-linejoin="round"/>
<path id="Vector_2" d="M15.73 4.22998L19.27 7.76998" stroke="#00153F" stroke-width="1.5" stroke-linecap="round" stroke-linejoin="round"/>
<path id="Vector_3" d="M19.27 4.22998L15.73 7.76998" stroke="#00153F" stroke-width="1.5" stroke-linecap="round" stroke-linejoin="round"/>
</g>
</svg>
