<svg width="24" height="24" viewBox="0 0 24 24" fill="none" xmlns="http://www.w3.org/2000/svg">
<g id="Cart">
<path id="Vector" d="M9.25 18.81C9.80228 18.81 10.25 18.3623 10.25 17.81C10.25 17.2577 9.80228 16.81 9.25 16.81C8.69772 16.81 8.25 17.2577 8.25 17.81C8.25 18.3623 8.69772 18.81 9.25 18.81Z" fill="#00153F"/>
<path id="Vector_2" d="M17.25 18.81C17.8023 18.81 18.25 18.3623 18.25 17.81C18.25 17.2577 17.8023 16.81 17.25 16.81C16.6977 16.81 16.25 17.2577 16.25 17.81C16.25 18.3623 16.6977 18.81 17.25 18.81Z" fill="#00153F"/>
<path id="Vector_3" d="M3.53998 5.19H5.26998C5.64249 5.19037 6.00173 5.32843 6.27862 5.57763C6.5555 5.82683 6.73051 6.16958 6.76998 6.54L7.49998 13.84C7.53508 14.2122 7.70878 14.5575 7.98664 14.8076C8.26449 15.0577 8.62619 15.1942 8.99998 15.19H18.3C18.6683 15.1899 19.0237 15.0543 19.2985 14.809C19.5733 14.5638 19.7482 14.226 19.79 13.86L20.46 7.86C20.4837 7.65255 20.4638 7.44244 20.4017 7.2431C20.3395 7.04377 20.2364 6.85962 20.099 6.70242C19.9615 6.54522 19.7928 6.41845 19.6036 6.33021C19.4143 6.24198 19.2087 6.19422 19 6.19H6.72998" stroke="#00153F" stroke-width="1.5" stroke-linecap="round" stroke-linejoin="round"/>
</g>
</svg>
