<svg width="24" height="24" viewBox="0 0 24 24" fill="none" xmlns="http://www.w3.org/2000/svg">
<g id="Direct-1">
<path id="Vector" d="M7.34001 15.31L11.11 7.79001C11.1939 7.62621 11.3214 7.48874 11.4785 7.39275C11.6355 7.29676 11.816 7.24597 12 7.24597C12.1841 7.24597 12.3645 7.29676 12.5216 7.39275C12.6786 7.48874 12.8061 7.62621 12.89 7.79001L16.66 15.31C16.7566 15.4978 16.7912 15.7114 16.759 15.9201C16.7267 16.1288 16.6292 16.3219 16.4804 16.4718C16.3317 16.6217 16.1393 16.7206 15.9308 16.7544C15.7223 16.7882 15.5085 16.7552 15.32 16.66L12.45 15.22C12.3104 15.1497 12.1563 15.113 12 15.113C11.8437 15.113 11.6896 15.1497 11.55 15.22L8.68001 16.66C8.49149 16.7552 8.27768 16.7882 8.06922 16.7544C7.86076 16.7206 7.66835 16.6217 7.51958 16.4718C7.37081 16.3219 7.2733 16.1288 7.24104 15.9201C7.20879 15.7114 7.24343 15.4978 7.34001 15.31Z" stroke="#00153F" stroke-width="1.5" stroke-miterlimit="10"/>
</g>
</svg>
