<svg width="24" height="24" viewBox="0 0 24 24" fill="none" xmlns="http://www.w3.org/2000/svg">
<g id="Email-New">
<path id="Vector" d="M22 10V16.6C21.9974 17.5009 21.6383 18.3642 21.0012 19.0012C20.3642 19.6383 19.5009 19.9974 18.6 20H5.4C4.49908 19.9974 3.6358 19.6383 2.99875 19.0012C2.3617 18.3642 2.00264 17.5009 2 16.6V7.4C2.00264 6.49908 2.3617 5.6358 2.99875 4.99875C3.6358 4.3617 4.49908 4.00264 5.4 4H16" stroke="#00153F" stroke-width="1.5" stroke-linecap="round" stroke-linejoin="round"/>
<path id="Vector_2" d="M6 9L10.84 12.17C11.1787 12.4112 11.5842 12.5408 12 12.5408C12.4158 12.5408 12.8213 12.4112 13.16 12.17L18 9" stroke="#00153F" stroke-width="1.5" stroke-linecap="round" stroke-linejoin="round"/>
<path id="Vector_3" d="M20.5 7C21.3284 7 22 6.32843 22 5.5C22 4.67157 21.3284 4 20.5 4C19.6716 4 19 4.67157 19 5.5C19 6.32843 19.6716 7 20.5 7Z" stroke="#00153F" stroke-width="1.5" stroke-linecap="round" stroke-linejoin="round"/>
</g>
</svg>
