<svg width="24" height="24" viewBox="0 0 24 24" fill="none" xmlns="http://www.w3.org/2000/svg">
<g id="Eye">
<path id="Vector" d="M17.6569 8.15392L20.0893 10.5864C20.4644 10.9614 20.6751 11.4702 20.6751 12.0006C20.6751 12.531 20.4644 13.0397 20.0893 13.4148L17.6569 15.8472C16.1566 17.3475 14.1217 18.1904 12 18.1904C9.87827 18.1904 7.84344 17.3475 6.34315 15.8472L3.9107 13.4148C3.53563 13.0397 3.32491 12.531 3.32491 12.0006C3.32491 11.4702 3.53563 10.9614 3.9107 10.5864L6.34315 8.15392C7.84344 6.65363 9.87827 5.81078 12 5.81078C14.1217 5.81078 16.1566 6.65363 17.6569 8.15392Z" stroke="#00153F" stroke-width="1.5" stroke-linecap="round" stroke-linejoin="round"/>
<path id="Vector_2" d="M12 14.5C13.3807 14.5 14.5 13.3807 14.5 12C14.5 10.6193 13.3807 9.5 12 9.5C10.6193 9.5 9.5 10.6193 9.5 12C9.5 13.3807 10.6193 14.5 12 14.5Z" stroke="#00153F" stroke-width="1.5" stroke-linecap="round" stroke-linejoin="round"/>
</g>
</svg>
