<svg width="24" height="24" viewBox="0 0 24 24" fill="none" xmlns="http://www.w3.org/2000/svg">
<g id="Folder-Arrow-Down">
<path id="Vector" d="M4 16.5V7.5C4 6.96957 4.21071 6.46086 4.58579 6.08579C4.96086 5.71071 5.46957 5.5 6 5.5H10.17C10.4339 5.49979 10.6953 5.55182 10.939 5.65308C11.1827 5.75434 11.4039 5.90283 11.59 6.09L13.41 7.91C13.5961 8.09717 13.8173 8.24566 14.061 8.34692C14.3047 8.44818 14.5661 8.50021 14.83 8.5H18C18.5304 8.5 19.0391 8.71071 19.4142 9.08579C19.7893 9.46086 20 9.96957 20 10.5V16.5C20 17.0304 19.7893 17.5391 19.4142 17.9142C19.0391 18.2893 18.5304 18.5 18 18.5H6C5.46957 18.5 4.96086 18.2893 4.58579 17.9142C4.21071 17.5391 4 17.0304 4 16.5Z" stroke="#00153F" stroke-width="1.5" stroke-linecap="round" stroke-linejoin="round"/>
<path id="Vector_2" d="M12 16V10.76" stroke="#00153F" stroke-width="1.5" stroke-linecap="round" stroke-linejoin="round"/>
<path id="Vector_3" d="M13.57 14.43L12 16L10.43 14.43" stroke="#00153F" stroke-width="1.5" stroke-linecap="round" stroke-linejoin="round"/>
</g>
</svg>
