<svg width="24" height="24" viewBox="0 0 24 24" fill="none" xmlns="http://www.w3.org/2000/svg">
<g id="Forward">
<path id="Vector" d="M11.16 10.54L6.78 8.00002C6.52325 7.84938 6.23109 7.76968 5.93342 7.76905C5.63574 7.76842 5.34325 7.84689 5.08587 7.99644C4.82848 8.14599 4.61546 8.36123 4.46859 8.62015C4.32172 8.87907 4.24629 9.17237 4.25 9.47002V14.53C4.24629 14.8277 4.32172 15.121 4.46859 15.3799C4.61546 15.6388 4.82848 15.854 5.08587 16.0036C5.34325 16.1531 5.63574 16.2316 5.93342 16.231C6.23109 16.2304 6.52325 16.1506 6.78 16L11.16 13.47C11.4176 13.3219 11.6315 13.1084 11.7803 12.8512C11.9291 12.594 12.0075 12.3022 12.0075 12.005C12.0075 11.7079 11.9291 11.416 11.7803 11.1588C11.6315 10.9016 11.4176 10.6882 11.16 10.54Z" stroke="#00153F" stroke-width="1.5" stroke-linecap="round" stroke-linejoin="round"/>
<path id="Vector_2" d="M18.91 10.54L14.53 8.00002C14.2733 7.84938 13.9811 7.76968 13.6834 7.76905C13.3857 7.76842 13.0932 7.84689 12.8359 7.99644C12.5785 8.14599 12.3655 8.36123 12.2186 8.62015C12.0717 8.87907 11.9963 9.17237 12 9.47002V14.53C11.9963 14.8277 12.0717 15.121 12.2186 15.3799C12.3655 15.6388 12.5785 15.854 12.8359 16.0036C13.0932 16.1531 13.3857 16.2316 13.6834 16.231C13.9811 16.2304 14.2733 16.1506 14.53 16L18.91 13.47C19.1676 13.3219 19.3815 13.1084 19.5303 12.8512C19.6791 12.594 19.7575 12.3022 19.7575 12.005C19.7575 11.7079 19.6791 11.416 19.5303 11.1588C19.3815 10.9016 19.1676 10.6882 18.91 10.54Z" stroke="#00153F" stroke-width="1.5" stroke-linecap="round" stroke-linejoin="round"/>
</g>
</svg>
