<svg width="24" height="24" viewBox="0 0 24 24" fill="none" xmlns="http://www.w3.org/2000/svg">
<g id="Heart">
<path id="Vector" d="M16.74 4C16.1325 3.96754 15.5248 4.05859 14.9535 4.26764C14.3822 4.47669 13.8592 4.79941 13.4162 5.21629C12.9731 5.63316 12.6192 6.13554 12.3758 6.69307C12.1324 7.25059 12.0045 7.85168 12 8.46C11.9955 7.85168 11.8676 7.25059 11.6242 6.69307C11.3808 6.13554 11.0269 5.63316 10.5838 5.21629C10.1408 4.79941 9.61781 4.47669 9.04652 4.26764C8.47522 4.05859 7.86747 3.96754 7.26 4C6.0711 4.10893 4.9685 4.66717 4.17694 5.56092C3.38539 6.45467 2.96447 7.61665 3 8.81C3 16.56 9.35 19.28 11.38 20C11.7829 20.1314 12.2171 20.1314 12.62 20C14.62 19.33 20.97 16.61 21 8.86C21.0486 7.65818 20.6336 6.48364 19.8407 5.57913C19.0479 4.67462 17.9378 4.1093 16.74 4Z" stroke="#00153F" stroke-width="1.5" stroke-linecap="round" stroke-linejoin="round"/>
</g>
</svg>
