<svg width="24" height="24" viewBox="0 0 24 24" fill="none" xmlns="http://www.w3.org/2000/svg">
<g id="Login-Vertical">
<path id="Vector" d="M16 9.5H18C18.7956 9.5 19.5587 9.81607 20.1213 10.3787C20.6839 10.9413 21 11.7044 21 12.5V16.5C21 17.2956 20.6839 18.0587 20.1213 18.6213C19.5587 19.1839 18.7956 19.5 18 19.5H6C5.20435 19.5 4.44129 19.1839 3.87868 18.6213C3.31607 18.0587 3 17.2956 3 16.5V12.5C3 11.7044 3.31607 10.9413 3.87868 10.3787C4.44129 9.81607 5.20435 9.5 6 9.5H8" stroke="#00153F" stroke-width="1.5" stroke-linecap="round" stroke-linejoin="round"/>
<path id="Vector_2" d="M11.73 16.5V4.5" stroke="#00153F" stroke-width="1.5" stroke-linecap="round" stroke-linejoin="round"/>
<path id="Vector_3" d="M15.33 12.9L11.73 16.5L8.13 12.9" stroke="#00153F" stroke-width="1.5" stroke-linecap="round" stroke-linejoin="round"/>
</g>
</svg>
