<svg width="24" height="24" viewBox="0 0 24 24" fill="none" xmlns="http://www.w3.org/2000/svg">
<g id="Logout-Vertical">
<path id="Vector" d="M16 10.5H18C18.7956 10.5 19.5587 10.8161 20.1213 11.3787C20.6839 11.9413 21 12.7044 21 13.5V17.5C21 18.2956 20.6839 19.0587 20.1213 19.6213C19.5587 20.1839 18.7956 20.5 18 20.5H6C5.20435 20.5 4.44129 20.1839 3.87868 19.6213C3.31607 19.0587 3 18.2956 3 17.5V13.5C3 12.7044 3.31607 11.9413 3.87868 11.3787C4.44129 10.8161 5.20435 10.5 6 10.5H8" stroke="#00153F" stroke-width="1.5" stroke-linecap="round" stroke-linejoin="round"/>
<path id="Vector_2" d="M11.73 3.5V15.5" stroke="#00153F" stroke-width="1.5" stroke-linecap="round" stroke-linejoin="round"/>
<path id="Vector_3" d="M8.13 7.1L11.73 3.5L15.33 7.1" stroke="#00153F" stroke-width="1.5" stroke-linecap="round" stroke-linejoin="round"/>
</g>
</svg>
