<svg width="24" height="24" viewBox="0 0 24 24" fill="none" xmlns="http://www.w3.org/2000/svg">
<g id="Message-2">
<path id="Vector" d="M19.3901 13C19.1894 14.0347 18.7735 15.0157 18.1692 15.8793C17.565 16.743 16.7859 17.4699 15.8826 18.013C14.9793 18.5561 13.9719 18.9033 12.9257 19.032C11.8796 19.1607 10.8181 19.068 9.81009 18.76C9.60332 18.6851 9.37686 18.6851 9.17009 18.76L6.67009 20C6.5941 20.0377 6.50882 20.0526 6.42454 20.043C6.34026 20.0333 6.26057 19.9995 6.19505 19.9456C6.12954 19.8917 6.081 19.8201 6.05528 19.7392C6.02956 19.6584 6.02776 19.5718 6.05009 19.49L6.58009 17.35C6.61161 17.208 6.60901 17.0605 6.57251 16.9197C6.53601 16.7789 6.46663 16.6488 6.37009 16.54C5.51996 15.5837 4.92792 14.4262 4.64999 13.1772C4.37206 11.9282 4.41744 10.6289 4.78183 9.40228C5.14622 8.17569 5.81758 7.06237 6.73236 6.16768C7.64713 5.27298 8.77508 4.6265 10.0095 4.28942C11.2438 3.95234 12.5438 3.93581 13.7863 4.24139C15.0289 4.54697 16.1729 5.16456 17.1102 6.0357C18.0474 6.90685 18.7468 8.00274 19.1423 9.21967C19.5378 10.4366 19.6162 11.7343 19.3701 12.99L19.3901 13Z" stroke="#00153F" stroke-width="1.5" stroke-linecap="round" stroke-linejoin="round"/>
<path id="Vector_2" d="M9 11.5V11.501" stroke="#00153F" stroke-width="2" stroke-linecap="round" stroke-linejoin="round"/>
<path id="Vector_3" d="M12 11.5V11.501" stroke="#00153F" stroke-width="2" stroke-linecap="round" stroke-linejoin="round"/>
<path id="Vector_4" d="M15 11.5V11.501" stroke="#00153F" stroke-width="2" stroke-linecap="round" stroke-linejoin="round"/>
</g>
</svg>
