<svg width="24" height="24" viewBox="0 0 24 24" fill="none" xmlns="http://www.w3.org/2000/svg">
<g id="Share">
<path id="Vector" d="M6.85999 14C7.96455 14 8.85998 13.1046 8.85998 12C8.85998 10.8954 7.96455 10 6.85999 10C5.75542 10 4.85999 10.8954 4.85999 12C4.85999 13.1046 5.75542 14 6.85999 14Z" stroke="#00153F" stroke-width="1.5" stroke-miterlimit="10" stroke-linecap="round"/>
<path id="Vector_2" d="M17.14 9.04999C18.2446 9.04999 19.14 8.15456 19.14 7.04999C19.14 5.94542 18.2446 5.04999 17.14 5.04999C16.0354 5.04999 15.14 5.94542 15.14 7.04999C15.14 8.15456 16.0354 9.04999 17.14 9.04999Z" stroke="#00153F" stroke-width="1.5" stroke-miterlimit="10" stroke-linecap="round"/>
<path id="Vector_3" d="M9.03 10.95L15.34 7.91" stroke="#00153F" stroke-width="1.5" stroke-miterlimit="10" stroke-linecap="round"/>
<path id="Vector_4" d="M17.14 18.95C18.2446 18.95 19.14 18.0546 19.14 16.95C19.14 15.8454 18.2446 14.95 17.14 14.95C16.0354 14.95 15.14 15.8454 15.14 16.95C15.14 18.0546 16.0354 18.95 17.14 18.95Z" stroke="#00153F" stroke-width="1.5" stroke-miterlimit="10" stroke-linecap="round"/>
<path id="Vector_5" d="M9.03 13.05L15.34 16.09" stroke="#00153F" stroke-width="1.5" stroke-miterlimit="10" stroke-linecap="round"/>
</g>
</svg>
