<svg width="24" height="24" viewBox="0 0 24 24" fill="none" xmlns="http://www.w3.org/2000/svg">
<g id="Users-4">
<path id="Vector" d="M11 9.81C12.6569 9.81 14 8.46686 14 6.81C14 5.15315 12.6569 3.81 11 3.81C9.34315 3.81 8 5.15315 8 6.81C8 8.46686 9.34315 9.81 11 9.81Z" stroke="#00153F" stroke-width="1.5" stroke-linecap="round" stroke-linejoin="round"/>
<path id="Vector_2" d="M3.5 20.19C3.5 18.2009 4.29018 16.2932 5.6967 14.8867C7.10322 13.4802 9.01088 12.69 11 12.69C12.9891 12.69 14.8968 13.4802 16.3033 14.8867C17.7098 16.2932 18.5 18.2009 18.5 20.19" stroke="#00153F" stroke-width="1.5" stroke-linecap="round" stroke-linejoin="round"/>
<path id="Vector_3" d="M18 12.5C18.9229 13.0898 19.6819 13.9032 20.2064 14.8647C20.7308 15.8263 21.0038 16.9047 21 18" stroke="#00153F" stroke-width="1.5" stroke-linecap="round" stroke-linejoin="round"/>
<path id="Vector_4" d="M15.9 4.31C16.5631 4.31 17.199 4.57339 17.6678 5.04223C18.1366 5.51108 18.4 6.14696 18.4 6.81C18.4 7.47304 18.1366 8.10893 17.6678 8.57777C17.199 9.04661 16.5631 9.31 15.9 9.31" stroke="#00153F" stroke-width="1.5" stroke-linecap="round" stroke-linejoin="round"/>
</g>
</svg>
