<svg width="24" height="24" viewBox="0 0 24 24" fill="none" xmlns="http://www.w3.org/2000/svg">
<g id="User-4-Tick">
<path id="Vector" d="M15 17.44L16.57 19L20 15.57" stroke="#00153F" stroke-width="1.5" stroke-linecap="round" stroke-linejoin="round"/>
<path id="Vector_2" d="M11.5 9.65C13.1569 9.65 14.5 8.30686 14.5 6.65C14.5 4.99315 13.1569 3.65 11.5 3.65C9.84315 3.65 8.5 4.99315 8.5 6.65C8.5 8.30686 9.84315 9.65 11.5 9.65Z" stroke="#00153F" stroke-width="1.5" stroke-linecap="round" stroke-linejoin="round"/>
<path id="Vector_3" d="M4.00001 20C3.99753 18.6578 4.35576 17.3396 5.03725 16.1832C5.71874 15.0269 6.69844 14.0749 7.87386 13.4269C9.04929 12.7789 10.3773 12.4586 11.7188 12.4996C13.0604 12.5406 14.3664 12.9414 15.5 13.66" stroke="#00153F" stroke-width="1.5" stroke-linecap="round" stroke-linejoin="round"/>
</g>
</svg>
