<svg width="24" height="24" viewBox="0 0 24 24" fill="none" xmlns="http://www.w3.org/2000/svg">
<g id="User-4-Cross">
<path id="Vector" d="M19.09 19.69L15.91 16.5" stroke="#00153F" stroke-width="1.5" stroke-linecap="round" stroke-linejoin="round"/>
<path id="Vector_2" d="M15.91 19.69L19.09 16.5" stroke="#00153F" stroke-width="1.5" stroke-linecap="round" stroke-linejoin="round"/>
<path id="Vector_3" d="M11.75 9.65C13.4069 9.65 14.75 8.30686 14.75 6.65C14.75 4.99315 13.4069 3.65 11.75 3.65C10.0931 3.65 8.75 4.99315 8.75 6.65C8.75 8.30686 10.0931 9.65 11.75 9.65Z" stroke="#00153F" stroke-width="1.5" stroke-linecap="round" stroke-linejoin="round"/>
<path id="Vector_4" d="M4.25001 20C4.24753 18.6578 4.60576 17.3396 5.28725 16.1832C5.96874 15.0269 6.94844 14.0749 8.12386 13.4269C9.29929 12.7789 10.6273 12.4586 11.9688 12.4996C13.3104 12.5406 14.6164 12.9414 15.75 13.66" stroke="#00153F" stroke-width="1.5" stroke-linecap="round" stroke-linejoin="round"/>
</g>
</svg>
